<svg xmlns="http://www.w3.org/2000/svg" xmlns:xlink="http://www.w3.org/1999/xlink">
  <defs/>
  <g
     id="g1"
     transform="matrix(-1,0,0,1,-2,0)">
    <path
       stroke="none"
       fill="#ffffff"
       d="m -21.05,5 q -2.05,0 -3.5,-1.45 -1.5,-1.5 -1.5,-3.55 0,-2.05 1.5,-3.5 1.45,-1.5 3.5,-1.5 H 11.8 L 8.9,-7.9 Q 8,-8.8 8,-10.05 q 0,-1.25 0.9,-2.1 0.85,-0.9 2.1,-0.9 1.25,0 2.15,0.9 L 23.2,-2.1 q 0.85,0.85 0.85,2.1 0,1.25 -0.85,2.1 L 13.15,12.15 q -0.9,0.9 -2.1,0.9 Q 9.8,13.05 8.9,12.2 8,11.3 8,10.1 8,8.85 8.9,7.95 L 11.85,5 h -32.9"
       id="path1" />
  </g>
</svg>
