<?xml version="1.0" encoding="UTF-8" standalone="no"?>
<svg
   fill="#000000"
   version="1.1"
   id="Layer_1"
   width="800"
   height="800"
   viewBox="796 796 200 200"
   enable-background="new 796 796 200 200"
   xml:space="preserve"
   xmlns="http://www.w3.org/2000/svg"
   xmlns:svg="http://www.w3.org/2000/svg"><defs
   id="defs6" />
<g
   id="g6"><path
     d="m 954.393,866.523 c 5.926,-5.926 9.189,-13.804 9.189,-22.183 0,-8.379 -3.264,-16.257 -9.188,-22.183 -2.358,-2.36 -6.184,-2.359 -8.543,0 -2.36,2.359 -2.36,6.184 -0.002,8.543 3.644,3.644 5.651,8.488 5.651,13.641 0,5.151 -2.007,9.995 -5.649,13.639 l -2.168,2.167 c 0,0 -10e-4,10e-4 -10e-4,10e-4 l -3.055,-3.056 c -1.835,-1.834 -4.322,-2.864 -6.916,-2.864 -2.594,0 -5.081,1.03 -6.914,2.864 l -5.136,5.135 c -0.566,0.568 -1.431,0.716 -2.155,0.369 -9.275,-4.438 -19.503,-6.779 -30.09,-6.779 -18.644,0 -36.172,7.26 -49.356,20.443 -27.214,27.215 -27.214,71.495 0,98.708 13.184,13.185 30.711,20.445 49.355,20.445 18.643,0 36.173,-7.261 49.355,-20.445 21.443,-21.443 25.988,-53.483 13.64,-79.421 -0.346,-0.723 -0.197,-1.585 0.37,-2.153 l 5.16,-5.161 c 3.817,-3.819 3.817,-10.01 0,-13.829 l -5.715,-5.714 c 10e-4,0 10e-4,0 10e-4,-0.001 z m -24.166,99.904 c -10.901,10.9 -25.396,16.904 -40.812,16.904 -15.416,0 -29.91,-6.004 -40.811,-16.904 -22.503,-22.504 -22.503,-59.12 0,-81.623 10.902,-10.9 25.396,-16.904 40.813,-16.904 15.417,0 29.911,6.003 40.812,16.904 22.499,22.503 22.499,59.118 -0.002,81.623 z"
     id="path2" /><path
     d="m 935.287,817.365 c 0.785,0.786 1.817,1.18 2.848,1.18 1.029,0 2.061,-0.393 2.848,-1.179 1.573,-1.572 1.573,-4.123 0,-5.696 l -6.304,-6.305 c -1.57,-1.574 -4.122,-1.573 -5.695,0 -1.573,1.573 -1.573,4.122 0,5.696 z"
     id="path3" /><path
     d="m 924.316,830.503 h 8.915 c 2.225,0 4.028,-1.803 4.028,-4.028 0,-2.224 -1.804,-4.027 -4.028,-4.027 h -8.915 c -2.225,0 -4.027,1.804 -4.027,4.027 0,2.225 1.803,4.028 4.027,4.028 z"
     id="path4" /><path
     d="m 950.058,813.553 c 2.226,0 4.027,-1.804 4.027,-4.027 v -8.915 c 0,-2.225 -1.802,-4.028 -4.027,-4.028 -2.225,0 -4.028,1.803 -4.028,4.028 v 8.915 c -10e-4,2.223 1.802,4.027 4.028,4.027 z"
     id="path5" /><path
     d="m 971.171,805.275 c -1.573,-1.572 -4.124,-1.572 -5.695,0 l -6.304,6.305 c -1.573,1.572 -1.573,4.122 0,5.695 0.787,0.786 1.817,1.18 2.848,1.18 1.031,0 2.063,-0.394 2.847,-1.18 l 6.304,-6.305 c 1.573,-1.572 1.573,-4.122 0,-5.695 z"
     id="path6" /></g>
</svg>
